<svg xmlns="http://www.w3.org/2000/svg" viewBox="0 0 100 100" fill="none">
  <defs>
    <linearGradient id="rfGrad" x1="0%" y1="0%" x2="100%" y2="100%">
      <stop offset="0%" style="stop-color:#8B5CF6;stop-opacity:1" />
      <stop offset="100%" style="stop-color:#6D28D9;stop-opacity:1" />
    </linearGradient>
  </defs>
  
  <!-- RF IC -->
  <rect x="30" y="40" width="40" height="30" fill="url(#rfGrad)" rx="3"/>
  
  <!-- Antenna -->
  <g stroke="#E5E7EB" stroke-width="2" fill="none">
    <path d="M35 35 L35 25"/>
    <path d="M30 30 L40 30"/>
    <path d="M32 32 L38 32"/>
  </g>
  
  <!-- RF waves -->
  <g stroke="#DDD6FE" stroke-width="1.5" fill="none" opacity="0.8">
    <path d="M45 25 Q55 20 65 25"/>
    <path d="M48 28 Q55 25 62 28"/>
    <path d="M50 31 Q55 29 60 31"/>
  </g>
  
  <!-- Pins -->
  <g fill="#374151">
    <rect x="42" y="72" width="3" height="8"/>
    <rect x="48" y="72" width="3" height="8"/>
    <rect x="54" y="72" width="3" height="8"/>
    
    <rect x="22" y="47" width="8" height="3"/>
    <rect x="22" y="53" width="8" height="3"/>
    <rect x="22" y="59" width="8" height="3"/>
    
    <rect x="70" y="47" width="8" height="3"/>
    <rect x="70" y="53" width="8" height="3"/>
    <rect x="70" y="59" width="8" height="3"/>
  </g>
  
  <!-- RF label -->
  <text x="50" y="58" font-family="Arial" font-size="8" text-anchor="middle" fill="#F3F4F6" font-weight="bold">RF</text>
</svg>